<mxfile host="Electron" modified="2023-09-05T14:08:27.501Z" agent="Mozilla/5.0 (Windows NT 10.0; Win64; x64) AppleWebKit/537.36 (KHTML, like Gecko) draw.io/21.6.8 Chrome/114.0.5735.289 Electron/25.5.0 Safari/537.36" etag="J8Dwh9w3OtEsmhLSatTH" version="21.6.8" type="device">
  <diagram name="Page-1" id="7GMT-beZkwUedmG0-DxE">
    <mxGraphModel dx="1036" dy="614" grid="1" gridSize="10" guides="1" tooltips="1" connect="1" arrows="1" fold="1" page="1" pageScale="1" pageWidth="850" pageHeight="1100" math="0" shadow="0">
      <root>
        <mxCell id="0" />
        <mxCell id="1" parent="0" />
        <mxCell id="s0O9s2n1PuIEmUqbwGtK-48" style="edgeStyle=orthogonalEdgeStyle;rounded=0;orthogonalLoop=1;jettySize=auto;html=1;exitX=1.007;exitY=0.938;exitDx=0;exitDy=0;exitPerimeter=0;" parent="1" source="s0O9s2n1PuIEmUqbwGtK-2" edge="1">
          <mxGeometry relative="1" as="geometry">
            <mxPoint x="452" y="300" as="targetPoint" />
          </mxGeometry>
        </mxCell>
        <mxCell id="s0O9s2n1PuIEmUqbwGtK-49" style="edgeStyle=orthogonalEdgeStyle;rounded=0;orthogonalLoop=1;jettySize=auto;html=1;entryX=0;entryY=0.25;entryDx=0;entryDy=0;exitX=1.007;exitY=0.929;exitDx=0;exitDy=0;exitPerimeter=0;" parent="1" source="s0O9s2n1PuIEmUqbwGtK-2" target="s0O9s2n1PuIEmUqbwGtK-65" edge="1">
          <mxGeometry relative="1" as="geometry">
            <mxPoint x="449.72" y="589.31" as="targetPoint" />
            <Array as="points">
              <mxPoint x="402" y="300" />
              <mxPoint x="402" y="481" />
            </Array>
          </mxGeometry>
        </mxCell>
        <mxCell id="s0O9s2n1PuIEmUqbwGtK-2" value="Client" style="html=1;overflow=block;blockSpacing=1;whiteSpace=wrap;fontSize=16.7;fontColor=#3a414a;spacing=3.8;strokeColor=#3a414a;strokeOpacity=100;rounded=1;absoluteArcSize=1;arcSize=9;strokeWidth=0.8;lucidId=gJdIgxv0D-uK;" parent="1" vertex="1">
          <mxGeometry x="75" y="230" width="75" height="75" as="geometry" />
        </mxCell>
        <mxCell id="s0O9s2n1PuIEmUqbwGtK-3" value="Ordering Service" style="html=1;overflow=block;blockSpacing=1;whiteSpace=wrap;fontSize=16.7;fontColor=#3a414a;spacing=3.8;strokeColor=#3a414a;strokeOpacity=100;rounded=1;absoluteArcSize=1;arcSize=9;strokeWidth=0.8;lucidId=gJdIvHb7BSO.;" parent="1" vertex="1">
          <mxGeometry x="225" y="80" width="150" height="75" as="geometry" />
        </mxCell>
        <mxCell id="s0O9s2n1PuIEmUqbwGtK-58" style="edgeStyle=orthogonalEdgeStyle;rounded=0;orthogonalLoop=1;jettySize=auto;html=1;entryX=1;entryY=1;entryDx=0;entryDy=0;exitX=0.007;exitY=0.637;exitDx=0;exitDy=0;exitPerimeter=0;" parent="1" source="s0O9s2n1PuIEmUqbwGtK-4" target="s0O9s2n1PuIEmUqbwGtK-2" edge="1">
          <mxGeometry relative="1" as="geometry" />
        </mxCell>
        <mxCell id="s0O9s2n1PuIEmUqbwGtK-4" value="Peer&#xa;&#xa;&#xa;&#xa;&#xa;&#xa;&#xa;&#xa;&#xa;&#xa;&#xa;&#xa;&#xa;" style="html=1;overflow=block;blockSpacing=1;whiteSpace=wrap;fontSize=16.7;fontColor=#3a414a;spacing=3.8;strokeColor=#3a414a;strokeOpacity=100;rounded=1;absoluteArcSize=1;arcSize=9;strokeWidth=0.8;lucidId=gJdIC6EkD9Za;container=1;collapsible=0;" parent="1" vertex="1">
          <mxGeometry x="453" y="154" width="360" height="270" as="geometry" />
        </mxCell>
        <mxCell id="s0O9s2n1PuIEmUqbwGtK-42" value="&lt;span style=&quot;font-size: 15px;&quot;&gt;Enclave&lt;br&gt;&lt;br&gt;&lt;br&gt;&lt;br&gt;&lt;br&gt;&lt;/span&gt;" style="html=1;overflow=block;blockSpacing=1;whiteSpace=wrap;fontSize=16.7;spacing=3.8;strokeColor=#82b366;strokeOpacity=100;rounded=1;absoluteArcSize=1;arcSize=9;strokeWidth=0.8;lucidId=gJdI5SxZYz~T;fillColor=#d5e8d4;" parent="s0O9s2n1PuIEmUqbwGtK-4" vertex="1">
          <mxGeometry x="43" y="57" width="109" height="112" as="geometry" />
        </mxCell>
        <mxCell id="s0O9s2n1PuIEmUqbwGtK-5" style="edgeStyle=orthogonalEdgeStyle;rounded=0;orthogonalLoop=1;jettySize=auto;html=1;entryX=0;entryY=0.5;entryDx=0;entryDy=0;exitX=-0.015;exitY=0.684;exitDx=0;exitDy=0;exitPerimeter=0;dashed=1;" parent="s0O9s2n1PuIEmUqbwGtK-4" source="s0O9s2n1PuIEmUqbwGtK-6" target="s0O9s2n1PuIEmUqbwGtK-4" edge="1">
          <mxGeometry relative="1" as="geometry">
            <Array as="points">
              <mxPoint x="40" y="134" />
            </Array>
          </mxGeometry>
        </mxCell>
        <mxCell id="s0O9s2n1PuIEmUqbwGtK-6" value="&lt;font style=&quot;font-size: 15px;&quot;&gt;chaincode&lt;/font&gt;" style="html=1;overflow=block;blockSpacing=1;whiteSpace=wrap;fontSize=16.7;fontColor=#3a414a;spacing=3.8;strokeColor=#3a414a;strokeOpacity=100;rounded=1;absoluteArcSize=1;arcSize=9;strokeWidth=0.8;lucidId=gJdI5SxZYz~T;" parent="s0O9s2n1PuIEmUqbwGtK-4" vertex="1">
          <mxGeometry x="60" y="83" width="75" height="75" as="geometry" />
        </mxCell>
        <mxCell id="s0O9s2n1PuIEmUqbwGtK-7" value="worldstate" style="html=1;overflow=block;blockSpacing=1;whiteSpace=wrap;shape=mxgraph.aws3.dynamo_db;labelPosition=center;verticalLabelPosition=bottom;align=center;verticalAlign=top;pointerEvents=1;fontSize=16.7;fontColor=#3a414a;spacing=3.8;strokeColor=#3a414a;strokeOpacity=100;rounded=1;absoluteArcSize=1;arcSize=9;fillColor=#2e73b8;strokeWidth=0.8;lucidId=gJdIeH.mhM4w;" parent="s0O9s2n1PuIEmUqbwGtK-4" vertex="1">
          <mxGeometry x="233" y="165" width="90" height="75" as="geometry" />
        </mxCell>
        <mxCell id="s0O9s2n1PuIEmUqbwGtK-8" value="Block &amp;amp; Txn&lt;br&gt;Validator" style="html=1;overflow=block;blockSpacing=1;whiteSpace=wrap;fontSize=16.7;fontColor=#3a414a;spacing=3.8;strokeColor=#3a414a;strokeOpacity=100;rounded=1;absoluteArcSize=1;arcSize=9;strokeWidth=0.8;lucidId=gJdIPFnTu.oT;" parent="s0O9s2n1PuIEmUqbwGtK-4" vertex="1">
          <mxGeometry x="225.5" y="12" width="105" height="45" as="geometry" />
        </mxCell>
        <mxCell id="s0O9s2n1PuIEmUqbwGtK-9" value="Ledger" style="html=1;overflow=block;blockSpacing=1;whiteSpace=wrap;shape=cylinder3;direction=south;size=10;anchorPointDirection=0;boundedLbl=1;fontSize=16.7;fontColor=#3a414a;spacing=3.8;strokeColor=#3a414a;strokeOpacity=100;rounded=1;absoluteArcSize=1;arcSize=9;strokeWidth=0.8;lucidId=gJdIh2kn3Ske;" parent="s0O9s2n1PuIEmUqbwGtK-4" vertex="1">
          <mxGeometry x="225" y="114" width="105" height="44" as="geometry" />
        </mxCell>
        <mxCell id="s0O9s2n1PuIEmUqbwGtK-10" value="" style="html=1;jettySize=18;whiteSpace=wrap;fontSize=13;strokeColor=#3a414a;strokeOpacity=100;strokeWidth=0.8;rounded=1;arcSize=12;edgeStyle=orthogonalEdgeStyle;startArrow=none;endArrow=block;endFill=1;exitX=1.005;exitY=0.5;exitPerimeter=0;entryX=0;entryY=0.462;entryPerimeter=0;lucidId=gJdI9AyTRsS.;" parent="s0O9s2n1PuIEmUqbwGtK-4" source="s0O9s2n1PuIEmUqbwGtK-6" target="s0O9s2n1PuIEmUqbwGtK-7" edge="1">
          <mxGeometry width="100" height="100" relative="1" as="geometry">
            <Array as="points" />
          </mxGeometry>
        </mxCell>
        <mxCell id="s0O9s2n1PuIEmUqbwGtK-11" value="2. get_state" style="text;html=1;resizable=0;labelBackgroundColor=default;align=center;verticalAlign=middle;fontStyle=1;fontColor=#333333;fontSize=13.3;" parent="s0O9s2n1PuIEmUqbwGtK-10" vertex="1">
          <mxGeometry x="-0.47838870128141253" relative="1" as="geometry">
            <mxPoint x="-2" y="54" as="offset" />
          </mxGeometry>
        </mxCell>
        <mxCell id="s0O9s2n1PuIEmUqbwGtK-12" value="" style="html=1;jettySize=18;whiteSpace=wrap;fontSize=13;strokeColor=#3a414a;strokeOpacity=100;strokeWidth=0.8;rounded=1;arcSize=12;edgeStyle=orthogonalEdgeStyle;startArrow=none;endArrow=block;endFill=1;exitX=0.5;exitY=1.008;exitPerimeter=0;entryX=0.5;entryY=-0.009;entryPerimeter=0;lucidId=gJdIpPk4oHPC;" parent="s0O9s2n1PuIEmUqbwGtK-4" source="s0O9s2n1PuIEmUqbwGtK-8" target="s0O9s2n1PuIEmUqbwGtK-9" edge="1">
          <mxGeometry width="100" height="100" relative="1" as="geometry">
            <Array as="points" />
          </mxGeometry>
        </mxCell>
        <mxCell id="s0O9s2n1PuIEmUqbwGtK-13" value="9. Validate txn, if valid,&#xa;update ledger &amp; worldstate" style="text;html=1;resizable=0;labelBackgroundColor=default;align=center;verticalAlign=middle;fontStyle=1;fontColor=#333333;fontSize=13.3;" parent="s0O9s2n1PuIEmUqbwGtK-12" vertex="1">
          <mxGeometry x="-0.3578581693730789" relative="1" as="geometry">
            <mxPoint x="-6" y="7" as="offset" />
          </mxGeometry>
        </mxCell>
        <mxCell id="s0O9s2n1PuIEmUqbwGtK-14" style="edgeStyle=orthogonalEdgeStyle;rounded=0;orthogonalLoop=1;jettySize=auto;html=1;dashed=1;" parent="s0O9s2n1PuIEmUqbwGtK-4" edge="1">
          <mxGeometry relative="1" as="geometry">
            <mxPoint y="115" as="sourcePoint" />
            <mxPoint x="60" y="115" as="targetPoint" />
          </mxGeometry>
        </mxCell>
        <mxCell id="s0O9s2n1PuIEmUqbwGtK-69" value="world state: {&lt;br&gt;&amp;nbsp; Alice: &quot;Enc(Data_A)&quot;,&lt;br&gt;&amp;nbsp; Bob: &quot;Enc(Data_B)&quot;,&lt;br&gt;}" style="text;html=1;resizable=0;labelBackgroundColor=default;align=left;verticalAlign=middle;fontStyle=1;fontColor=#333333;fontSize=13.3;" parent="s0O9s2n1PuIEmUqbwGtK-4" vertex="1">
          <mxGeometry x="37.004999999999995" y="226" as="geometry" />
        </mxCell>
        <mxCell id="s0O9s2n1PuIEmUqbwGtK-15" value="" style="html=1;jettySize=18;whiteSpace=wrap;fontSize=13;strokeColor=#3a414a;strokeOpacity=100;strokeWidth=0.8;rounded=1;arcSize=12;edgeStyle=orthogonalEdgeStyle;startArrow=none;endArrow=block;endFill=1;exitX=1.005;exitY=0.5;exitPerimeter=0;lucidId=gJdIXWOxPbk5;" parent="1" edge="1">
          <mxGeometry width="100" height="100" relative="1" as="geometry">
            <Array as="points" />
            <mxPoint x="150.375" y="266.5" as="sourcePoint" />
            <mxPoint x="452" y="267" as="targetPoint" />
          </mxGeometry>
        </mxCell>
        <mxCell id="s0O9s2n1PuIEmUqbwGtK-16" value="&lt;font size=&quot;2&quot; color=&quot;#333333&quot;&gt;&lt;span style=&quot;caret-color: rgb(51, 51, 51);&quot;&gt;&lt;b&gt;1. Invoke Chaincode&lt;/b&gt;&lt;/span&gt;&lt;/font&gt;" style="text;html=1;resizable=0;labelBackgroundColor=default;align=center;verticalAlign=middle;" parent="s0O9s2n1PuIEmUqbwGtK-15" vertex="1">
          <mxGeometry x="-0.6624911630150677" relative="1" as="geometry">
            <mxPoint x="14" y="-17" as="offset" />
          </mxGeometry>
        </mxCell>
        <mxCell id="s0O9s2n1PuIEmUqbwGtK-17" style="edgeStyle=orthogonalEdgeStyle;rounded=0;orthogonalLoop=1;jettySize=auto;html=1;exitX=0;exitY=0;exitDx=0;exitDy=0;" parent="s0O9s2n1PuIEmUqbwGtK-15" source="s0O9s2n1PuIEmUqbwGtK-16" target="s0O9s2n1PuIEmUqbwGtK-16" edge="1">
          <mxGeometry relative="1" as="geometry" />
        </mxCell>
        <mxCell id="s0O9s2n1PuIEmUqbwGtK-18" value="" style="html=1;jettySize=18;whiteSpace=wrap;overflow=block;blockSpacing=1;fontSize=13;strokeColor=#3a414a;strokeOpacity=100;strokeWidth=0.8;rounded=1;arcSize=12;edgeStyle=orthogonalEdgeStyle;startArrow=none;endArrow=block;endFill=1;exitX=0.5;exitY=1.005;exitPerimeter=0;entryX=0.853;entryY=1.005;entryPerimeter=0;lucidId=gJdI6e9lcOTb;" parent="1" source="s0O9s2n1PuIEmUqbwGtK-2" target="s0O9s2n1PuIEmUqbwGtK-2" edge="1">
          <mxGeometry width="100" height="100" relative="1" as="geometry">
            <Array as="points">
              <mxPoint x="113" y="325" generated="1" />
              <mxPoint x="139" y="325" generated="1" />
            </Array>
          </mxGeometry>
        </mxCell>
        <mxCell id="s0O9s2n1PuIEmUqbwGtK-19" value="4. Collect Endorsement&#xa;5. Make Txn" style="text;html=1;resizable=0;labelBackgroundColor=default;align=center;verticalAlign=middle;fontStyle=1;fontColor=#333333;fontSize=13.3;" parent="s0O9s2n1PuIEmUqbwGtK-18" vertex="1">
          <mxGeometry relative="1" as="geometry">
            <mxPoint x="-51" y="25" as="offset" />
          </mxGeometry>
        </mxCell>
        <mxCell id="s0O9s2n1PuIEmUqbwGtK-20" value="" style="html=1;jettySize=18;whiteSpace=wrap;fontSize=13;strokeColor=#3a414a;strokeOpacity=100;strokeWidth=0.8;rounded=1;arcSize=12;edgeStyle=orthogonalEdgeStyle;startArrow=none;endArrow=block;endFill=1;exitX=0.707;exitY=-0.005;exitPerimeter=0;entryX=-0.002;entryY=0.5;entryPerimeter=0;lucidId=gJdIMfJJn0Pu;" parent="1" source="s0O9s2n1PuIEmUqbwGtK-2" target="s0O9s2n1PuIEmUqbwGtK-3" edge="1">
          <mxGeometry width="100" height="100" relative="1" as="geometry">
            <Array as="points" />
          </mxGeometry>
        </mxCell>
        <mxCell id="s0O9s2n1PuIEmUqbwGtK-21" value="6. Send Txn" style="text;html=1;resizable=0;labelBackgroundColor=default;align=center;verticalAlign=middle;fontStyle=1;fontColor=#333333;fontSize=13.3;" parent="s0O9s2n1PuIEmUqbwGtK-20" vertex="1">
          <mxGeometry x="0.5863560893171429" relative="1" as="geometry">
            <mxPoint x="-10" y="-17" as="offset" />
          </mxGeometry>
        </mxCell>
        <mxCell id="s0O9s2n1PuIEmUqbwGtK-22" value="" style="html=1;jettySize=18;whiteSpace=wrap;fontSize=13;strokeColor=#3a414a;strokeOpacity=100;strokeWidth=0.8;rounded=1;arcSize=12;edgeStyle=orthogonalEdgeStyle;startArrow=none;endArrow=block;endFill=1;exitX=0.767;exitY=-0.005;exitPerimeter=0;entryX=0.247;entryY=-0.005;entryPerimeter=0;lucidId=gJdIUVIgrSRE;" parent="1" source="s0O9s2n1PuIEmUqbwGtK-3" target="s0O9s2n1PuIEmUqbwGtK-3" edge="1">
          <mxGeometry width="100" height="100" relative="1" as="geometry">
            <Array as="points">
              <mxPoint x="340" y="60" generated="1" />
              <mxPoint x="262" y="60" generated="1" />
            </Array>
          </mxGeometry>
        </mxCell>
        <mxCell id="s0O9s2n1PuIEmUqbwGtK-23" value="7. Collect Txn, Order, Create block" style="text;html=1;resizable=0;labelBackgroundColor=default;align=center;verticalAlign=middle;fontStyle=1;fontColor=#333333;fontSize=13.3;" parent="s0O9s2n1PuIEmUqbwGtK-22" vertex="1">
          <mxGeometry relative="1" as="geometry">
            <mxPoint x="-1" y="-10" as="offset" />
          </mxGeometry>
        </mxCell>
        <mxCell id="s0O9s2n1PuIEmUqbwGtK-36" value="" style="html=1;jettySize=18;whiteSpace=wrap;fontSize=13;strokeColor=#3a414a;strokeOpacity=100;strokeWidth=0.8;rounded=1;arcSize=12;edgeStyle=orthogonalEdgeStyle;startArrow=none;endArrow=block;endFill=1;lucidId=gJdIGSDJXt0t;" parent="1" edge="1">
          <mxGeometry width="100" height="100" relative="1" as="geometry">
            <Array as="points" />
            <mxPoint x="452" y="290" as="sourcePoint" />
            <mxPoint x="150" y="290" as="targetPoint" />
          </mxGeometry>
        </mxCell>
        <mxCell id="s0O9s2n1PuIEmUqbwGtK-37" value="3. Return Response" style="text;html=1;resizable=0;labelBackgroundColor=default;align=center;verticalAlign=middle;fontStyle=1;fontColor=#333333;fontSize=13.3;" parent="s0O9s2n1PuIEmUqbwGtK-36" vertex="1">
          <mxGeometry x="0.5066110514761524" relative="1" as="geometry">
            <mxPoint x="-13" y="-10" as="offset" />
          </mxGeometry>
        </mxCell>
        <mxCell id="s0O9s2n1PuIEmUqbwGtK-44" style="edgeStyle=orthogonalEdgeStyle;rounded=0;orthogonalLoop=1;jettySize=auto;html=1;exitX=0;exitY=0;exitDx=0;exitDy=0;" parent="s0O9s2n1PuIEmUqbwGtK-36" source="s0O9s2n1PuIEmUqbwGtK-37" target="s0O9s2n1PuIEmUqbwGtK-37" edge="1">
          <mxGeometry relative="1" as="geometry" />
        </mxCell>
        <mxCell id="s0O9s2n1PuIEmUqbwGtK-38" value="" style="html=1;jettySize=18;whiteSpace=wrap;fontSize=13;strokeColor=#3a414a;strokeOpacity=100;strokeWidth=0.8;rounded=1;arcSize=12;edgeStyle=orthogonalEdgeStyle;startArrow=none;endArrow=block;endFill=1;exitX=1.002;exitY=0.5;exitPerimeter=0;entryX=0.5;entryY=-0.008;entryPerimeter=0;lucidId=gJdI1uD7Hwsn;" parent="1" source="s0O9s2n1PuIEmUqbwGtK-3" target="s0O9s2n1PuIEmUqbwGtK-8" edge="1">
          <mxGeometry width="100" height="100" relative="1" as="geometry">
            <Array as="points" />
          </mxGeometry>
        </mxCell>
        <mxCell id="s0O9s2n1PuIEmUqbwGtK-39" value="8. Boardcast Block" style="text;html=1;resizable=0;labelBackgroundColor=default;align=center;verticalAlign=middle;fontStyle=1;fontColor=#333333;fontSize=13.3;" parent="s0O9s2n1PuIEmUqbwGtK-38" vertex="1">
          <mxGeometry x="-0.4789578713886864" relative="1" as="geometry">
            <mxPoint x="-31" y="13" as="offset" />
          </mxGeometry>
        </mxCell>
        <mxCell id="s0O9s2n1PuIEmUqbwGtK-40" style="edgeStyle=orthogonalEdgeStyle;rounded=0;orthogonalLoop=1;jettySize=auto;html=1;entryX=1;entryY=0.5;entryDx=0;entryDy=0;" parent="1" source="s0O9s2n1PuIEmUqbwGtK-3" target="s0O9s2n1PuIEmUqbwGtK-67" edge="1">
          <mxGeometry relative="1" as="geometry">
            <Array as="points">
              <mxPoint x="830" y="118" />
              <mxPoint x="830" y="512" />
            </Array>
            <mxPoint x="727" y="452" as="targetPoint" />
          </mxGeometry>
        </mxCell>
        <mxCell id="s0O9s2n1PuIEmUqbwGtK-50" style="edgeStyle=orthogonalEdgeStyle;rounded=0;orthogonalLoop=1;jettySize=auto;html=1;dashed=1;" parent="1" edge="1">
          <mxGeometry relative="1" as="geometry">
            <mxPoint x="455" y="299" as="sourcePoint" />
            <mxPoint x="515" y="299" as="targetPoint" />
          </mxGeometry>
        </mxCell>
        <mxCell id="s0O9s2n1PuIEmUqbwGtK-51" value="&lt;font color=&quot;#669c35&quot;&gt;3a. Invoke Endorse&lt;/font&gt;" style="text;html=1;resizable=0;labelBackgroundColor=default;align=center;verticalAlign=middle;fontStyle=1;fontColor=#333333;fontSize=13.3;" parent="1" vertex="1">
          <mxGeometry x="225.00379310344826" y="310" as="geometry" />
        </mxCell>
        <mxCell id="s0O9s2n1PuIEmUqbwGtK-56" value="&lt;font color=&quot;#669c35&quot;&gt;3b. Return Endorsement&lt;/font&gt;" style="text;html=1;resizable=0;labelBackgroundColor=default;align=center;verticalAlign=middle;fontStyle=1;fontColor=#333333;fontSize=13.3;" parent="1" vertex="1">
          <mxGeometry x="232.00379310344826" y="334" as="geometry" />
        </mxCell>
        <mxCell id="s0O9s2n1PuIEmUqbwGtK-62" style="edgeStyle=orthogonalEdgeStyle;rounded=0;orthogonalLoop=1;jettySize=auto;html=1;entryX=0;entryY=0.5;entryDx=0;entryDy=0;exitX=0;exitY=1;exitDx=0;exitDy=0;dashed=1;" parent="1" source="s0O9s2n1PuIEmUqbwGtK-6" edge="1">
          <mxGeometry relative="1" as="geometry">
            <Array as="points">
              <mxPoint x="513" y="325" />
            </Array>
            <mxPoint x="512" y="324" as="sourcePoint" />
            <mxPoint x="453" y="325" as="targetPoint" />
          </mxGeometry>
        </mxCell>
        <mxCell id="s0O9s2n1PuIEmUqbwGtK-64" style="edgeStyle=orthogonalEdgeStyle;rounded=0;orthogonalLoop=1;jettySize=auto;html=1;exitX=0;exitY=0.5;exitDx=0;exitDy=0;entryX=1;entryY=1;entryDx=0;entryDy=0;" parent="1" source="s0O9s2n1PuIEmUqbwGtK-65" target="s0O9s2n1PuIEmUqbwGtK-2" edge="1">
          <mxGeometry relative="1" as="geometry">
            <mxPoint x="448" y="611" as="sourcePoint" />
            <mxPoint x="152" y="310" as="targetPoint" />
          </mxGeometry>
        </mxCell>
        <mxCell id="s0O9s2n1PuIEmUqbwGtK-65" value="Peer&#xa;&#xa;&#xa;&#xa;&#xa;&#xa;&#xa;&#xa;&#xa;&#xa;&#xa;&#xa;&#xa;" style="html=1;overflow=block;blockSpacing=1;whiteSpace=wrap;fontSize=16.7;fontColor=#3a414a;spacing=3.8;strokeColor=#3a414a;strokeOpacity=100;rounded=1;absoluteArcSize=1;arcSize=9;strokeWidth=0.8;lucidId=gJdIC6EkD9Za;container=1;collapsible=0;" parent="1" vertex="1">
          <mxGeometry x="452" y="450" width="119" height="125" as="geometry" />
        </mxCell>
        <mxCell id="s0O9s2n1PuIEmUqbwGtK-66" value="Peer&#xa;&#xa;&#xa;&#xa;&#xa;&#xa;&#xa;&#xa;&#xa;&#xa;&#xa;&#xa;&#xa;" style="html=1;overflow=block;blockSpacing=1;whiteSpace=wrap;fontSize=16.7;fontColor=#3a414a;spacing=3.8;strokeColor=#3a414a;strokeOpacity=100;rounded=1;absoluteArcSize=1;arcSize=9;strokeWidth=0.8;lucidId=gJdIC6EkD9Za;container=1;collapsible=0;" parent="1" vertex="1">
          <mxGeometry x="571" y="450" width="119" height="125" as="geometry" />
        </mxCell>
        <mxCell id="s0O9s2n1PuIEmUqbwGtK-67" value="Peer&#xa;&#xa;&#xa;&#xa;&#xa;&#xa;&#xa;&#xa;&#xa;&#xa;&#xa;&#xa;&#xa;" style="html=1;overflow=block;blockSpacing=1;whiteSpace=wrap;fontSize=16.7;fontColor=#3a414a;spacing=3.8;strokeColor=#3a414a;strokeOpacity=100;rounded=1;absoluteArcSize=1;arcSize=9;strokeWidth=0.8;lucidId=gJdIC6EkD9Za;container=1;collapsible=0;" parent="1" vertex="1">
          <mxGeometry x="690" y="450" width="119" height="125" as="geometry" />
        </mxCell>
      </root>
    </mxGraphModel>
  </diagram>
</mxfile>
